<mxfile host="Electron" modified="2024-04-14T00:08:26.873Z" agent="Mozilla/5.0 (Windows NT 10.0; Win64; x64) AppleWebKit/537.36 (KHTML, like Gecko) draw.io/24.1.0 Chrome/120.0.6099.109 Electron/28.1.0 Safari/537.36" etag="LbCwSrG16g2yyojDSITC" version="24.1.0" type="device">
  <diagram name="Page-1" id="gCpwc7dR6P475R_qlIo7">
    <mxGraphModel dx="1615" dy="955" grid="1" gridSize="10" guides="1" tooltips="1" connect="1" arrows="1" fold="1" page="1" pageScale="1" pageWidth="827" pageHeight="1169" math="0" shadow="0">
      <root>
        <mxCell id="0" />
        <mxCell id="1" parent="0" />
        <mxCell id="32e4HEBmI9IPDoeMy1GM-1" value="" style="ellipse;html=1;" vertex="1" parent="1">
          <mxGeometry x="380" y="70" width="30" height="30" as="geometry" />
        </mxCell>
        <mxCell id="32e4HEBmI9IPDoeMy1GM-2" value="" style="endArrow=open;html=1;rounded=0;align=center;verticalAlign=top;endFill=0;labelBackgroundColor=none;endSize=6;entryX=0.5;entryY=0;entryDx=0;entryDy=0;" edge="1" parent="1" source="32e4HEBmI9IPDoeMy1GM-1" target="32e4HEBmI9IPDoeMy1GM-4">
          <mxGeometry relative="1" as="geometry">
            <mxPoint x="395" y="160" as="targetPoint" />
          </mxGeometry>
        </mxCell>
        <mxCell id="32e4HEBmI9IPDoeMy1GM-3" style="edgeStyle=orthogonalEdgeStyle;rounded=0;orthogonalLoop=1;jettySize=auto;html=1;exitX=0.5;exitY=1;exitDx=0;exitDy=0;" edge="1" parent="1" source="32e4HEBmI9IPDoeMy1GM-4" target="32e4HEBmI9IPDoeMy1GM-6">
          <mxGeometry relative="1" as="geometry" />
        </mxCell>
        <mxCell id="32e4HEBmI9IPDoeMy1GM-4" value="Odabir ekrana za upravljanje članstvom i osobnim podacima" style="rounded=1;whiteSpace=wrap;html=1;" vertex="1" parent="1">
          <mxGeometry x="335" y="170" width="120" height="60" as="geometry" />
        </mxCell>
        <mxCell id="32e4HEBmI9IPDoeMy1GM-5" style="edgeStyle=orthogonalEdgeStyle;rounded=0;orthogonalLoop=1;jettySize=auto;html=1;exitX=0.5;exitY=1;exitDx=0;exitDy=0;entryX=0.5;entryY=0;entryDx=0;entryDy=0;" edge="1" parent="1" source="32e4HEBmI9IPDoeMy1GM-6" target="32e4HEBmI9IPDoeMy1GM-7">
          <mxGeometry relative="1" as="geometry" />
        </mxCell>
        <mxCell id="32e4HEBmI9IPDoeMy1GM-6" value="Dohvat podataka baze podataka" style="rounded=1;whiteSpace=wrap;html=1;" vertex="1" parent="1">
          <mxGeometry x="335" y="300" width="120" height="60" as="geometry" />
        </mxCell>
        <mxCell id="32e4HEBmI9IPDoeMy1GM-7" value="Prikaz profila člana" style="rounded=1;whiteSpace=wrap;html=1;" vertex="1" parent="1">
          <mxGeometry x="335" y="430" width="120" height="60" as="geometry" />
        </mxCell>
        <mxCell id="32e4HEBmI9IPDoeMy1GM-17" style="edgeStyle=orthogonalEdgeStyle;rounded=0;orthogonalLoop=1;jettySize=auto;html=1;exitX=0.5;exitY=1;exitDx=0;exitDy=0;exitPerimeter=0;" edge="1" parent="1" source="32e4HEBmI9IPDoeMy1GM-10" target="32e4HEBmI9IPDoeMy1GM-15">
          <mxGeometry relative="1" as="geometry" />
        </mxCell>
        <mxCell id="32e4HEBmI9IPDoeMy1GM-10" value="&lt;font style=&quot;font-size: 10px;&quot;&gt;Odabir akcije&lt;/font&gt;" style="strokeWidth=2;html=1;shape=mxgraph.flowchart.decision;whiteSpace=wrap;" vertex="1" parent="1">
          <mxGeometry x="366.25" y="557" width="57.5" height="55" as="geometry" />
        </mxCell>
        <mxCell id="32e4HEBmI9IPDoeMy1GM-11" style="edgeStyle=orthogonalEdgeStyle;rounded=0;orthogonalLoop=1;jettySize=auto;html=1;exitX=0.5;exitY=1;exitDx=0;exitDy=0;" edge="1" parent="1" target="32e4HEBmI9IPDoeMy1GM-10" source="32e4HEBmI9IPDoeMy1GM-7">
          <mxGeometry relative="1" as="geometry">
            <mxPoint x="395" y="520" as="sourcePoint" />
            <Array as="points" />
          </mxGeometry>
        </mxCell>
        <mxCell id="32e4HEBmI9IPDoeMy1GM-16" style="edgeStyle=orthogonalEdgeStyle;rounded=0;orthogonalLoop=1;jettySize=auto;html=1;exitX=0.5;exitY=1;exitDx=0;exitDy=0;exitPerimeter=0;entryX=0;entryY=0.5;entryDx=0;entryDy=0;" edge="1" parent="1" source="32e4HEBmI9IPDoeMy1GM-12" target="32e4HEBmI9IPDoeMy1GM-15">
          <mxGeometry relative="1" as="geometry" />
        </mxCell>
        <mxCell id="32e4HEBmI9IPDoeMy1GM-12" value="UC10 - Izmjena osobnih podataka" style="points=[[0.25,0,0],[0.5,0,0],[0.75,0,0],[1,0.25,0],[1,0.5,0],[1,0.75,0],[0.75,1,0],[0.5,1,0],[0.25,1,0],[0,0.75,0],[0,0.5,0],[0,0.25,0]];shape=mxgraph.bpmn.task;whiteSpace=wrap;rectStyle=rounded;size=10;bpmnShapeType=call;isLoopSub=1;" vertex="1" parent="1">
          <mxGeometry x="160" y="680" width="100" height="60" as="geometry" />
        </mxCell>
        <mxCell id="32e4HEBmI9IPDoeMy1GM-13" style="edgeStyle=orthogonalEdgeStyle;rounded=0;orthogonalLoop=1;jettySize=auto;html=1;exitX=0;exitY=0.5;exitDx=0;exitDy=0;exitPerimeter=0;entryX=0.5;entryY=0;entryDx=0;entryDy=0;entryPerimeter=0;" edge="1" parent="1" source="32e4HEBmI9IPDoeMy1GM-10" target="32e4HEBmI9IPDoeMy1GM-12">
          <mxGeometry relative="1" as="geometry" />
        </mxCell>
        <mxCell id="32e4HEBmI9IPDoeMy1GM-14" value="Izmjena osobnih podataka" style="edgeLabel;html=1;align=center;verticalAlign=middle;resizable=0;points=[];" vertex="1" connectable="0" parent="32e4HEBmI9IPDoeMy1GM-13">
          <mxGeometry x="-0.0189" y="-3" relative="1" as="geometry">
            <mxPoint x="38" y="4" as="offset" />
          </mxGeometry>
        </mxCell>
        <mxCell id="32e4HEBmI9IPDoeMy1GM-19" style="edgeStyle=orthogonalEdgeStyle;rounded=0;orthogonalLoop=1;jettySize=auto;html=1;exitX=0.5;exitY=1;exitDx=0;exitDy=0;entryX=0.5;entryY=0;entryDx=0;entryDy=0;" edge="1" parent="1" source="32e4HEBmI9IPDoeMy1GM-15" target="32e4HEBmI9IPDoeMy1GM-18">
          <mxGeometry relative="1" as="geometry" />
        </mxCell>
        <mxCell id="32e4HEBmI9IPDoeMy1GM-15" value="Završetak upravljanja članstvom i osobnim podacima" style="rounded=1;whiteSpace=wrap;html=1;" vertex="1" parent="1">
          <mxGeometry x="335" y="810" width="120" height="60" as="geometry" />
        </mxCell>
        <mxCell id="32e4HEBmI9IPDoeMy1GM-18" value="" style="ellipse;html=1;shape=endState;fillColor=strokeColor;" vertex="1" parent="1">
          <mxGeometry x="380" y="940" width="30" height="30" as="geometry" />
        </mxCell>
      </root>
    </mxGraphModel>
  </diagram>
</mxfile>
